%FSLAX25Y25*%
%MOIN*%
G70*
G01*
G75*
G04 Layer_Physical_Order=3*
G04 Layer_Color=128*
%ADD10C,0.00787*%
%ADD11C,0.00591*%
%ADD12C,0.02362*%
%ADD13C,0.01575*%
%ADD14C,0.01181*%
%ADD15C,0.01000*%
%ADD16C,0.00984*%
%ADD17C,0.01969*%
%ADD18C,0.02756*%
%ADD19R,0.02165X0.03347*%
%ADD20R,0.01969X0.01969*%
%ADD21R,0.14961X0.03150*%
%ADD22R,0.03150X0.14961*%
%ADD23R,0.02362X0.02362*%
%ADD24C,0.03937*%
%ADD25R,0.02559X0.02362*%
%ADD26R,0.02362X0.02559*%
%ADD27R,0.03937X0.03150*%
%ADD28R,0.01969X0.02598*%
%ADD29R,0.02598X0.01969*%
%ADD30R,0.01181X0.05709*%
%ADD31R,0.05709X0.01181*%
%ADD32R,0.17520X0.17520*%
%ADD33R,0.03150X0.03543*%
%ADD34R,0.02362X0.02362*%
%ADD35R,0.02756X0.02362*%
%ADD36R,0.04331X0.01142*%
%ADD37R,0.06221X0.09252*%
%ADD38R,0.09449X0.07480*%
%ADD39R,0.07480X0.04331*%
%ADD40R,0.03937X0.03543*%
%ADD41R,0.04528X0.05709*%
%ADD42R,0.05709X0.04528*%
%ADD43R,0.03740X0.09055*%
%ADD44R,0.11811X0.05118*%
%ADD45R,0.02362X0.06102*%
%ADD46R,0.01142X0.05906*%
%ADD47R,0.05906X0.01142*%
%ADD48R,0.04724X0.05709*%
%ADD49R,0.02362X0.02756*%
%ADD50R,0.01142X0.04528*%
%ADD51R,0.04528X0.01142*%
%ADD52R,0.09843X0.09843*%
%ADD53C,0.01260*%
%ADD54R,0.04134X0.05118*%
%ADD55P,0.03341X4X180.0*%
%ADD56R,0.03150X0.03937*%
%ADD57R,0.05512X0.03937*%
%ADD58R,0.18898X0.03937*%
%ADD59R,0.01102X0.03150*%
%ADD60R,0.03150X0.01102*%
%ADD61C,0.00500*%
%ADD62C,0.01142*%
%ADD63C,0.03937*%
%ADD64R,0.12992X0.03937*%
%ADD65R,0.03937X0.12992*%
%ADD66R,0.08000X0.06900*%
%ADD67R,0.05100X0.04800*%
%ADD68R,0.05300X0.03600*%
%ADD69R,0.01800X0.02100*%
%ADD70R,0.11800X0.04200*%
%ADD71R,0.02200X0.11317*%
%ADD72R,0.06600X0.08100*%
%ADD73R,0.01900X0.04300*%
%ADD74R,0.04600X0.05600*%
%ADD75R,0.08200X0.06284*%
%ADD76R,0.05900X0.05500*%
%ADD77R,0.04961X0.03937*%
%ADD78R,0.15272X0.03937*%
%ADD79R,0.03937X0.07874*%
%ADD80R,0.09803X0.03937*%
%ADD81C,0.05906*%
%ADD82R,0.05906X0.05906*%
%ADD83C,0.01575*%
%ADD84C,0.03150*%
%ADD85R,0.55906X1.57480*%
%ADD86C,0.03150*%
%ADD87C,0.15748*%
G04:AMPARAMS|DCode=88|XSize=55.433mil|YSize=55.433mil|CornerRadius=0mil|HoleSize=0mil|Usage=FLASHONLY|Rotation=0.000|XOffset=0mil|YOffset=0mil|HoleType=Round|Shape=Relief|Width=5mil|Gap=5mil|Entries=4|*
%AMTHD88*
7,0,0,0.05543,0.04543,0.00500,45*
%
%ADD88THD88*%
%ADD89C,0.04724*%
G04:AMPARAMS|DCode=90|XSize=39.685mil|YSize=39.685mil|CornerRadius=0mil|HoleSize=0mil|Usage=FLASHONLY|Rotation=0.000|XOffset=0mil|YOffset=0mil|HoleType=Round|Shape=Relief|Width=5mil|Gap=5mil|Entries=4|*
%AMTHD90*
7,0,0,0.03969,0.02969,0.00500,45*
%
%ADD90THD90*%
G04:AMPARAMS|DCode=91|XSize=27.874mil|YSize=27.874mil|CornerRadius=0mil|HoleSize=0mil|Usage=FLASHONLY|Rotation=0.000|XOffset=0mil|YOffset=0mil|HoleType=Round|Shape=Relief|Width=5mil|Gap=5mil|Entries=4|*
%AMTHD91*
7,0,0,0.02787,0.01787,0.00500,45*
%
%ADD91THD91*%
%ADD92C,0.01969*%
%ADD93C,0.03937*%
%ADD94C,0.00800*%
D10*
X-57713Y-3687D02*
X-57413Y-3987D01*
X-58313Y-33787D02*
X-57413Y-32887D01*
X-67613Y-33787D02*
X-58313D01*
X-57413Y-32887D02*
Y-3987D01*
X-83913Y-33787D02*
X-67613D01*
X-83913Y-46087D02*
Y-33787D01*
Y-46087D02*
X-82813Y-47187D01*
X-78713D01*
X-77413Y-45887D01*
Y-43387D01*
X-92813Y27813D02*
X-90913Y25913D01*
X-92613Y-22487D02*
Y17813D01*
X-90913Y19513D01*
X-41813Y16438D02*
Y28513D01*
Y16438D02*
X-37813Y12438D01*
Y-22987D02*
Y-6912D01*
X-57313Y-43387D02*
X-52713Y-47987D01*
X-6713Y-41387D02*
Y-22987D01*
X-21513Y-41387D02*
X-6713D01*
X-28113Y-47987D02*
X-21513Y-41387D01*
X-52713Y-47987D02*
X-28113D01*
X-77413Y-43387D02*
X-57313D01*
X-77413D02*
Y-38387D01*
X-56013D01*
X-49713Y-32087D01*
Y-3387D01*
X-51013Y-2087D02*
X-49713Y-3387D01*
X-56213Y-2087D02*
X-51013D01*
X-57113Y-2987D02*
X-56213Y-2087D01*
X-65213Y-11087D02*
X-57113Y-2987D01*
X-74313Y-11087D02*
X-65213D01*
X-75513Y-9887D02*
X-74313Y-11087D01*
X-75513Y-9887D02*
Y20040D01*
X-63840Y31713D01*
X-52113D01*
X-48913Y28513D01*
X-41813D01*
X28987D02*
X30187D01*
X18787Y18313D02*
X28987Y28513D01*
X-41813D02*
X-12713D01*
X-2513Y18313D01*
X-73413Y-52387D02*
X-61013Y-64787D01*
X-88113Y-52387D02*
X-73413D01*
X-92613Y-47887D02*
Y-26487D01*
X10387Y-64787D02*
Y-22987D01*
X28420Y77953D02*
X101420D01*
X-92613Y-26487D02*
Y-22487D01*
X-49651Y-64787D02*
X10387D01*
X-61013D02*
X-49651D01*
X-92613Y-47887D02*
X-88113Y-52387D01*
X-90913Y19513D02*
Y25913D01*
X-37813Y-22987D02*
X10387D01*
X28420Y77953D02*
X30187D01*
X-37813Y-6912D02*
Y12438D01*
X30187Y28513D02*
Y77953D01*
X-2513Y18313D02*
X18787D01*
X-107613Y27813D02*
X-92813D01*
D85*
X80315Y-0D02*
D03*
D86*
X-101113Y50913D02*
D03*
Y40913D02*
D03*
X-36743Y-54428D02*
D03*
X-44617D02*
D03*
X-52554Y-54491D02*
D03*
X-60365Y-54428D02*
D03*
X-68280Y-54465D02*
D03*
X-5247Y-54428D02*
D03*
X-13121D02*
D03*
X-20995D02*
D03*
X-28869D02*
D03*
X-93701Y-33465D02*
D03*
X-101575D02*
D03*
X-17323D02*
D03*
X-9449D02*
D03*
D87*
X-96457Y66929D02*
D03*
Y-66929D02*
D03*
D88*
X-9413Y37913D02*
D03*
D89*
Y67913D02*
D03*
Y57913D02*
D03*
Y47913D02*
D03*
D90*
X-76154Y-54469D02*
D03*
D91*
X-10213Y-38887D02*
D03*
X-89613Y10613D02*
D03*
X-3813Y-62387D02*
D03*
X-36813Y21847D02*
D03*
X-12913Y-20256D02*
D03*
X-93913Y24213D02*
D03*
X-97113Y24113D02*
D03*
X5638Y21013D02*
D03*
X-49723Y-45787D02*
D03*
X-81213Y37913D02*
D03*
X7587Y-43687D02*
D03*
X-77144Y70806D02*
D03*
X-102813Y-2087D02*
D03*
X-102062Y-19187D02*
D03*
X-40465Y42486D02*
D03*
X-68513Y4313D02*
D03*
X-35913Y72013D02*
D03*
X-47513Y32513D02*
D03*
X-11627Y17837D02*
D03*
X-22313Y24481D02*
D03*
X1487Y-3987D02*
D03*
X-100813Y-38487D02*
D03*
Y-43987D02*
D03*
Y-41287D02*
D03*
X-86413Y-24487D02*
D03*
X-82613Y-22987D02*
D03*
X-86413Y-22187D02*
D03*
X-82613Y-20687D02*
D03*
X-102313Y9813D02*
D03*
X-31913Y7913D02*
D03*
X-54713Y28913D02*
D03*
Y26613D02*
D03*
Y24313D02*
D03*
X-76713Y-64087D02*
D03*
X-78513Y-61487D02*
D03*
X-80981Y-44887D02*
D03*
X-74613Y-40787D02*
D03*
X-63513Y-5587D02*
D03*
X-52472Y-4887D02*
D03*
X-16081Y-43856D02*
D03*
X-44813Y-4787D02*
D03*
X-71513Y-6087D02*
D03*
X-73213Y-8087D02*
D03*
D92*
X-88313Y49113D02*
D03*
X-51013Y16513D02*
D03*
X-51856Y14544D02*
D03*
X-67387Y64913D02*
D03*
X-19913Y39413D02*
D03*
X-3481Y-1087D02*
D03*
X-4513Y8413D02*
D03*
X-29313Y-43687D02*
D03*
X-104713Y39613D02*
D03*
X-105113Y13513D02*
D03*
X-104313Y-10287D02*
D03*
X5687Y74913D02*
D03*
X-19313Y75813D02*
D03*
X-41613Y75613D02*
D03*
X14547Y44613D02*
D03*
X-5313Y31113D02*
D03*
X-84613Y72713D02*
D03*
X-103613Y-23287D02*
D03*
X4087Y-37287D02*
D03*
X-54213Y59113D02*
D03*
X-84558Y60867D02*
D03*
X-73113Y27513D02*
D03*
X-72913Y30813D02*
D03*
X-69355Y61855D02*
D03*
X-82913Y62913D02*
D03*
X-74913Y60933D02*
D03*
X-89613Y30613D02*
D03*
X-73065Y58965D02*
D03*
X-74313Y57013D02*
D03*
X-96313Y1313D02*
D03*
X-102313Y7381D02*
D03*
X-99613Y1313D02*
D03*
X-61481Y40913D02*
D03*
X-29913Y-8187D02*
D03*
X-16929Y24803D02*
D03*
X-55913Y-38287D02*
D03*
X-59413Y-38587D02*
D03*
X-61613D02*
D03*
X-63713D02*
D03*
X-36513Y-11687D02*
D03*
Y-16829D02*
D03*
X-43913Y-20687D02*
D03*
X-29929Y-22487D02*
D03*
X-26213Y-22387D02*
D03*
X-51613Y44113D02*
D03*
X-18813Y-20687D02*
D03*
X-53607Y39204D02*
D03*
X-51813Y47313D02*
D03*
Y50913D02*
D03*
X-19713Y30513D02*
D03*
X-24413Y29213D02*
D03*
X-81213Y33976D02*
D03*
X-59844Y8113D02*
D03*
X-63613Y13013D02*
D03*
X-59513Y20013D02*
D03*
X-59613Y13013D02*
D03*
X-63613Y20013D02*
D03*
X-66117Y43961D02*
D03*
X-453Y42713D02*
D03*
X-40465Y34743D02*
D03*
X-71324Y64946D02*
D03*
X-40490Y63491D02*
D03*
X-71313Y23013D02*
D03*
X-88313Y55028D02*
D03*
X-75265Y43217D02*
D03*
X4547Y42713D02*
D03*
X14628Y66080D02*
D03*
X3987Y68113D02*
D03*
X-59513Y64708D02*
D03*
X-87404Y-9635D02*
D03*
X-63450Y39488D02*
D03*
X-94971Y-12816D02*
D03*
X6273Y-61074D02*
D03*
X-80Y-61028D02*
D03*
X9547Y45653D02*
D03*
X-93113Y-15687D02*
D03*
X-93913Y-18587D02*
D03*
X9420Y-53959D02*
D03*
X-86113Y-56D02*
D03*
X-82713D02*
D03*
X-2384Y60210D02*
D03*
X-87404Y-11535D02*
D03*
X13100Y-55118D02*
D03*
X-49590Y58965D02*
D03*
X-35513Y37881D02*
D03*
X-63913Y45613D02*
D03*
X-58643Y45543D02*
D03*
X-18813Y-18187D02*
D03*
X-18458Y-14779D02*
D03*
X-23698Y1373D02*
D03*
X-17498D02*
D03*
X-20427Y-1803D02*
D03*
X-17498Y-5227D02*
D03*
X-23698D02*
D03*
X-13699Y19813D02*
D03*
X-41112Y3653D02*
D03*
Y237D02*
D03*
X-41098Y-3363D02*
D03*
X-10698Y4873D02*
D03*
X-20427Y-12887D02*
D03*
X-86813Y-41887D02*
D03*
Y-44287D02*
D03*
X-89513Y-38387D02*
D03*
X-32713Y68713D02*
D03*
X-49595Y55028D02*
D03*
X-59513Y31913D02*
D03*
X-17188Y56112D02*
D03*
X-91034Y713D02*
D03*
X-67756Y25297D02*
D03*
Y27797D02*
D03*
X-84713Y8013D02*
D03*
Y5213D02*
D03*
X-93013Y7413D02*
D03*
X-41112Y-6787D02*
D03*
X1345Y-7980D02*
D03*
X-7213Y-18287D02*
D03*
X15287Y-43687D02*
D03*
X15487Y69913D02*
D03*
X-40113Y73013D02*
D03*
X-43813Y69813D02*
D03*
X-65418Y74607D02*
D03*
X-81081Y70806D02*
D03*
X-48413Y71013D02*
D03*
X-63450Y72713D02*
D03*
X-55613Y64813D02*
D03*
X-56313Y60913D02*
D03*
X-72113Y-58587D02*
D03*
Y-64087D02*
D03*
X-68613Y-32587D02*
D03*
X-77513Y-31287D02*
D03*
X-62313Y-18187D02*
D03*
X-56613D02*
D03*
X-49313D02*
D03*
X-56299Y-32283D02*
D03*
X-49513Y-32187D02*
D03*
X-50213Y-25687D02*
D03*
X-56613D02*
D03*
X-62813Y-28187D02*
D03*
X-77413Y-18787D02*
D03*
X-77313Y-16187D02*
D03*
X-58513Y613D02*
D03*
X-44513Y-9152D02*
D03*
X-36313Y-32587D02*
D03*
X-35113Y-24687D02*
D03*
X-49913Y-87D02*
D03*
X-51691Y-12766D02*
D03*
X-31593Y-42223D02*
D03*
X-20481Y-24787D02*
D03*
X-26013Y-45887D02*
D03*
X-10313D02*
D03*
X-21913Y-30187D02*
D03*
X-59413Y39813D02*
D03*
X-53813Y44013D02*
D03*
X-76813Y-5787D02*
D03*
X3187Y10713D02*
D03*
X-9613Y-27487D02*
D03*
X-46013Y22813D02*
D03*
X-43913D02*
D03*
X-41813Y25913D02*
D03*
Y22813D02*
D03*
X-30150Y27081D02*
D03*
X-25513Y27213D02*
D03*
X7687Y-66687D02*
D03*
X-62813Y63613D02*
D03*
X15256Y30013D02*
D03*
X14628Y27413D02*
D03*
X-44613Y713D02*
D03*
Y-1787D02*
D03*
X-44662Y3862D02*
D03*
X-65471Y-47487D02*
D03*
X-103937Y45669D02*
D03*
X-103937Y75984D02*
D03*
X51575Y2756D02*
D03*
X-35213Y-28640D02*
D03*
X-77413D02*
D03*
X-68828Y-24703D02*
D03*
X-69313Y-20766D02*
D03*
X-68713Y73713D02*
D03*
X-83413Y28613D02*
D03*
X-87413Y43513D02*
D03*
X-94813Y-29887D02*
D03*
X-105118Y-57874D02*
D03*
X-96063Y-54331D02*
D03*
X-83713Y-66887D02*
D03*
X-86713Y-76387D02*
D03*
X-74313Y-73587D02*
D03*
X-63113Y-73487D02*
D03*
X-53113Y-73687D02*
D03*
X-40913D02*
D03*
X-31213Y-73587D02*
D03*
X-21413Y-73387D02*
D03*
X-8413Y-73487D02*
D03*
X-56513Y-53887D02*
D03*
X-48513Y-53087D02*
D03*
X-40713Y-54987D02*
D03*
X-52013Y-65587D02*
D03*
X-42613Y-65487D02*
D03*
X-61144Y-62187D02*
D03*
X-33344Y-61487D02*
D03*
X-32813Y-52787D02*
D03*
X-17113D02*
D03*
X-9113Y-53887D02*
D03*
X-22613Y-65487D02*
D03*
X-7913D02*
D03*
X2916Y-57687D02*
D03*
X3937Y-72047D02*
D03*
X-1113Y-63787D02*
D03*
X23487Y-59987D02*
D03*
X23787Y-75787D02*
D03*
X50187Y-75887D02*
D03*
X50787Y-60787D02*
D03*
Y-40787D02*
D03*
Y-20787D02*
D03*
X23787Y8213D02*
D03*
X30787D02*
D03*
X37787D02*
D03*
X45787D02*
D03*
X50787Y7213D02*
D03*
X23787Y19213D02*
D03*
X30787D02*
D03*
X37787D02*
D03*
X45787D02*
D03*
X50787Y20213D02*
D03*
Y29213D02*
D03*
Y39213D02*
D03*
Y49213D02*
D03*
Y59213D02*
D03*
Y74213D02*
D03*
X40787D02*
D03*
X24787D02*
D03*
X40787Y59213D02*
D03*
Y49213D02*
D03*
Y39213D02*
D03*
Y29213D02*
D03*
X30787D02*
D03*
Y39213D02*
D03*
Y49213D02*
D03*
Y59213D02*
D03*
X50787Y-10787D02*
D03*
Y-30787D02*
D03*
Y-50787D02*
D03*
X49787Y-787D02*
D03*
X40787D02*
D03*
Y-10787D02*
D03*
X30787D02*
D03*
X40787Y-20787D02*
D03*
X30787D02*
D03*
X40787Y-30787D02*
D03*
X30787D02*
D03*
X40787Y-40787D02*
D03*
X30787D02*
D03*
X40787Y-50787D02*
D03*
X30787D02*
D03*
X40787Y-60787D02*
D03*
X30787D02*
D03*
X-12013Y-41387D02*
D03*
X-27713Y-39987D02*
D03*
X-24313Y-29387D02*
D03*
X-21013Y-32587D02*
D03*
X-2513Y-29987D02*
D03*
X-68813Y8813D02*
D03*
X-26413Y63613D02*
D03*
X-15713Y35613D02*
D03*
X-27413Y47013D02*
D03*
X16287Y72513D02*
D03*
X15787Y53713D02*
D03*
X23487Y48813D02*
D03*
X23587Y25113D02*
D03*
X-2413Y19713D02*
D03*
X5687Y12413D02*
D03*
X9187Y16213D02*
D03*
X16887Y19313D02*
D03*
X16987Y7913D02*
D03*
X13387Y4313D02*
D03*
X9087Y-87D02*
D03*
X4187Y-2787D02*
D03*
X1387Y8513D02*
D03*
X8987Y-11187D02*
D03*
X8587Y-24487D02*
D03*
X-3913Y-18087D02*
D03*
X687Y-24087D02*
D03*
X-4513Y47113D02*
D03*
X-77413Y-12887D02*
D03*
X-71513Y-40387D02*
D03*
X-60513Y54213D02*
D03*
X-74513Y51113D02*
D03*
X-65013Y49113D02*
D03*
X-41013Y54613D02*
D03*
X1787Y15813D02*
D03*
X-14213Y63613D02*
D03*
X-102413Y55713D02*
D03*
X-86613Y58513D02*
D03*
X-70913Y-887D02*
D03*
X15687Y-36087D02*
D03*
X14887Y48313D02*
D03*
X10187Y55013D02*
D03*
X12598Y-73023D02*
D03*
X18898Y-53020D02*
D03*
X12598Y-61623D02*
D03*
X-95919Y-6547D02*
D03*
X-93163D02*
D03*
X-98675D02*
D03*
D93*
X-108268Y-78740D02*
Y78740D01*
X108268D01*
Y-78740D02*
Y78740D01*
X-108268Y-78740D02*
X108268D01*
D94*
X-85180Y77872D02*
X-75980D01*
X-108268Y71260D02*
Y78660D01*
Y-3640D02*
Y71260D01*
Y78660D02*
X-85968D01*
M02*
