%FSLAX25Y25*%
%MOIN*%
G70*
G01*
G75*
G04 Layer_Color=8421504*
%ADD10C,0.00787*%
%ADD11C,0.00591*%
%ADD12C,0.02362*%
%ADD13C,0.01575*%
%ADD14C,0.01181*%
%ADD15C,0.01000*%
%ADD16C,0.00984*%
%ADD17C,0.01969*%
%ADD18C,0.02756*%
%ADD19R,0.02165X0.03347*%
%ADD20R,0.01969X0.01969*%
%ADD21R,0.14961X0.03150*%
%ADD22R,0.03150X0.14961*%
%ADD23R,0.02362X0.02362*%
%ADD24C,0.03937*%
%ADD25R,0.02559X0.02362*%
%ADD26R,0.02362X0.02559*%
%ADD27R,0.03937X0.03150*%
%ADD28R,0.01969X0.02598*%
%ADD29R,0.02598X0.01969*%
%ADD30R,0.01181X0.05709*%
%ADD31R,0.05709X0.01181*%
%ADD32R,0.17520X0.17520*%
%ADD33R,0.03150X0.03543*%
%ADD34R,0.02362X0.02362*%
%ADD35R,0.02756X0.02362*%
%ADD36R,0.04331X0.01142*%
%ADD37R,0.06221X0.09252*%
%ADD38R,0.09449X0.07480*%
%ADD39R,0.07480X0.04331*%
%ADD40R,0.03937X0.03543*%
%ADD41R,0.04528X0.05709*%
%ADD42R,0.05709X0.04528*%
%ADD43R,0.03740X0.09055*%
%ADD44R,0.11811X0.05118*%
%ADD45R,0.02362X0.06102*%
%ADD46R,0.01142X0.05906*%
%ADD47R,0.05906X0.01142*%
%ADD48R,0.04724X0.05709*%
%ADD49R,0.02362X0.02756*%
%ADD50R,0.01142X0.04528*%
%ADD51R,0.04528X0.01142*%
%ADD52R,0.09843X0.09843*%
%ADD53C,0.01260*%
%ADD54R,0.04134X0.05118*%
%ADD55P,0.03341X4X180.0*%
%ADD56R,0.03150X0.03937*%
%ADD57R,0.05512X0.03937*%
%ADD58R,0.18898X0.03937*%
%ADD59R,0.01102X0.03150*%
%ADD60R,0.03150X0.01102*%
%ADD61C,0.00500*%
%ADD62C,0.01142*%
%ADD63C,0.03937*%
%ADD64R,0.12992X0.03937*%
%ADD65R,0.03937X0.12992*%
%ADD66R,0.08000X0.06900*%
%ADD67R,0.05100X0.04800*%
%ADD68R,0.05300X0.03600*%
%ADD69R,0.01800X0.02100*%
%ADD70R,0.11800X0.04200*%
%ADD71R,0.02200X0.11317*%
%ADD72R,0.06600X0.08100*%
%ADD73R,0.01900X0.04300*%
%ADD74R,0.04600X0.05600*%
%ADD75R,0.08200X0.06284*%
%ADD76R,0.05900X0.05500*%
%ADD77R,0.04961X0.03937*%
%ADD78R,0.15272X0.03937*%
%ADD79R,0.03937X0.07874*%
%ADD80R,0.09803X0.03937*%
%ADD81C,0.05906*%
%ADD82R,0.05906X0.05906*%
%ADD83C,0.01575*%
%ADD84C,0.03150*%
%ADD85R,0.55906X1.57480*%
%ADD86C,0.03150*%
%ADD87C,0.15748*%
G04:AMPARAMS|DCode=88|XSize=55.433mil|YSize=55.433mil|CornerRadius=0mil|HoleSize=0mil|Usage=FLASHONLY|Rotation=0.000|XOffset=0mil|YOffset=0mil|HoleType=Round|Shape=Relief|Width=5mil|Gap=5mil|Entries=4|*
%AMTHD88*
7,0,0,0.05543,0.04543,0.00500,45*
%
%ADD88THD88*%
%ADD89C,0.04724*%
G04:AMPARAMS|DCode=90|XSize=39.685mil|YSize=39.685mil|CornerRadius=0mil|HoleSize=0mil|Usage=FLASHONLY|Rotation=0.000|XOffset=0mil|YOffset=0mil|HoleType=Round|Shape=Relief|Width=5mil|Gap=5mil|Entries=4|*
%AMTHD90*
7,0,0,0.03969,0.02969,0.00500,45*
%
%ADD90THD90*%
G04:AMPARAMS|DCode=91|XSize=27.874mil|YSize=27.874mil|CornerRadius=0mil|HoleSize=0mil|Usage=FLASHONLY|Rotation=0.000|XOffset=0mil|YOffset=0mil|HoleType=Round|Shape=Relief|Width=5mil|Gap=5mil|Entries=4|*
%AMTHD91*
7,0,0,0.02787,0.01787,0.00500,45*
%
%ADD91THD91*%
%ADD92C,0.01969*%
%ADD93C,0.03937*%
%ADD94C,0.00800*%
%ADD95R,0.02362X0.00787*%
%ADD96R,0.00787X0.02362*%
%ADD97R,0.03347X0.02165*%
%ADD98R,0.02362X0.03937*%
%ADD99R,0.03740X0.03937*%
%ADD100R,0.02500X0.08400*%
%ADD101R,0.03000X0.02500*%
%ADD102R,0.01800X0.07300*%
%ADD103R,0.02300X0.10700*%
%ADD104R,0.02400X0.01800*%
%ADD105C,0.02000*%
%ADD106C,0.02500*%
%ADD107C,0.00600*%
%ADD108R,0.02600X0.02500*%
%ADD109R,0.00866X0.00866*%
%ADD110R,0.06299X0.02756*%
%ADD111R,0.02362X0.00984*%
%ADD112C,0.00000*%
G36*
X-17474Y-4756D02*
X-23380D01*
Y1150D01*
X-17474D01*
Y-4756D01*
D02*
G37*
D19*
X-17354Y45246D02*
D03*
X-22472D02*
D03*
X-19913Y36979D02*
D03*
D20*
X-105468Y-49169D02*
D03*
X19685Y-49213D02*
D03*
X19642Y75941D02*
D03*
X-105512Y75984D02*
D03*
D21*
X-78347Y-49606D02*
D03*
X-54724D02*
D03*
X-7480D02*
D03*
X-31102D02*
D03*
X-54724Y76378D02*
D03*
X-78347D02*
D03*
X-31102D02*
D03*
X-7480D02*
D03*
D22*
X-105905Y25197D02*
D03*
Y48819D02*
D03*
Y1575D02*
D03*
Y-22047D02*
D03*
X20079Y48819D02*
D03*
Y25197D02*
D03*
Y-22047D02*
D03*
Y1575D02*
D03*
D23*
X-77144Y69013D02*
D03*
X-81081D02*
D03*
X-69544Y-3787D02*
D03*
X-73481D02*
D03*
X-95781Y-37887D02*
D03*
X-91844D02*
D03*
X-47881Y34413D02*
D03*
X-43944D02*
D03*
X11319Y32013D02*
D03*
X15256D02*
D03*
X18898Y-55118D02*
D03*
X14961D02*
D03*
X-35244Y-6787D02*
D03*
X-39181D02*
D03*
X-35244Y213D02*
D03*
X-39181D02*
D03*
X-35244Y3628D02*
D03*
X-39181D02*
D03*
X-35230Y-3387D02*
D03*
X-39167D02*
D03*
X-19567Y19813D02*
D03*
X-15630D02*
D03*
X-19681Y16113D02*
D03*
X-15744D02*
D03*
D25*
X-100813Y13944D02*
D03*
Y17881D02*
D03*
X1687Y23744D02*
D03*
Y27681D02*
D03*
X-33713Y-16319D02*
D03*
Y-20256D02*
D03*
X-29929Y-16319D02*
D03*
Y-20256D02*
D03*
X-22413Y32681D02*
D03*
Y28744D02*
D03*
X-17313Y32681D02*
D03*
Y28744D02*
D03*
X7687Y-70119D02*
D03*
Y-74056D02*
D03*
X-47928Y10944D02*
D03*
Y14881D02*
D03*
X-44315Y14898D02*
D03*
Y10961D02*
D03*
X-56313Y-3156D02*
D03*
Y781D02*
D03*
X-26213Y-16319D02*
D03*
Y-20256D02*
D03*
X-22613Y-16319D02*
D03*
Y-20256D02*
D03*
X-24213Y24481D02*
D03*
Y20544D02*
D03*
X-99613Y7381D02*
D03*
Y3444D02*
D03*
X-95813Y7381D02*
D03*
Y3444D02*
D03*
X-15013Y-16319D02*
D03*
Y-20256D02*
D03*
X-36813Y16144D02*
D03*
Y20081D02*
D03*
X-52472Y-2831D02*
D03*
Y1106D02*
D03*
X-78713Y-6056D02*
D03*
Y-2119D02*
D03*
D26*
X-85544Y28613D02*
D03*
X-89481D02*
D03*
X-101081D02*
D03*
X-97144D02*
D03*
X-91581Y24513D02*
D03*
X-87644D02*
D03*
X-78644Y-34687D02*
D03*
X-82581D02*
D03*
X-33618Y-45669D02*
D03*
X-29681D02*
D03*
X-20144Y-45887D02*
D03*
X-24081D02*
D03*
X-16081D02*
D03*
X-12144D02*
D03*
X9819Y70013D02*
D03*
X13756D02*
D03*
X9519Y-40087D02*
D03*
X13456D02*
D03*
X-94981Y41013D02*
D03*
X-91044D02*
D03*
X-94981Y51013D02*
D03*
X-91044D02*
D03*
X8819Y66080D02*
D03*
X12756D02*
D03*
X9519Y-43687D02*
D03*
X13456D02*
D03*
X59Y66145D02*
D03*
X3996D02*
D03*
X7556Y31913D02*
D03*
X3619D02*
D03*
X-22344Y-24787D02*
D03*
X-26281D02*
D03*
X-78644Y-41887D02*
D03*
X-82581D02*
D03*
Y-38287D02*
D03*
X-78644D02*
D03*
X-24081Y-41887D02*
D03*
X-20144D02*
D03*
X-24081Y-38287D02*
D03*
X-20144D02*
D03*
X-16281Y-38387D02*
D03*
X-12344D02*
D03*
X-24144Y-34287D02*
D03*
X-28081D02*
D03*
D27*
X-96413Y20459D02*
D03*
Y13766D02*
D03*
X2916Y-61074D02*
D03*
Y-54381D02*
D03*
X3150Y-75394D02*
D03*
Y-68701D02*
D03*
X61811Y7087D02*
D03*
Y13386D02*
D03*
D28*
X-89813Y13963D02*
D03*
X-91781Y20262D02*
D03*
X-87844D02*
D03*
D29*
X5638Y27681D02*
D03*
Y23744D02*
D03*
X11937Y25713D02*
D03*
D30*
X-67439Y-42223D02*
D03*
X-65471D02*
D03*
X-63502D02*
D03*
X-61534D02*
D03*
X-59565D02*
D03*
X-57597D02*
D03*
X-55628D02*
D03*
X-53660D02*
D03*
X-51691D02*
D03*
X-49723D02*
D03*
X-47754D02*
D03*
X-45786D02*
D03*
Y-9152D02*
D03*
X-47754D02*
D03*
X-49723D02*
D03*
X-51691D02*
D03*
X-53660D02*
D03*
X-55628D02*
D03*
X-57597D02*
D03*
X-59565D02*
D03*
X-61534D02*
D03*
X-63502D02*
D03*
X-65471D02*
D03*
X-67439D02*
D03*
D31*
X-40077Y-36514D02*
D03*
Y-34546D02*
D03*
Y-32577D02*
D03*
Y-30609D02*
D03*
Y-28640D02*
D03*
Y-26672D02*
D03*
Y-24703D02*
D03*
Y-22735D02*
D03*
Y-20766D02*
D03*
Y-18798D02*
D03*
Y-16829D02*
D03*
Y-14861D02*
D03*
X-73148D02*
D03*
Y-16829D02*
D03*
Y-18798D02*
D03*
Y-20766D02*
D03*
Y-22735D02*
D03*
Y-24703D02*
D03*
Y-26672D02*
D03*
Y-28640D02*
D03*
Y-30609D02*
D03*
Y-32577D02*
D03*
Y-34546D02*
D03*
Y-36514D02*
D03*
D32*
X-56613Y-25687D02*
D03*
D33*
X-34457Y7713D02*
D03*
X-39968D02*
D03*
X-96157Y-16487D02*
D03*
X-101669D02*
D03*
X-52122Y5476D02*
D03*
X-57634D02*
D03*
D34*
X-40013Y70181D02*
D03*
Y66244D02*
D03*
X-7213Y-12209D02*
D03*
Y-16146D02*
D03*
X-17213Y62971D02*
D03*
Y59034D02*
D03*
Y50244D02*
D03*
Y54181D02*
D03*
X-35513Y43550D02*
D03*
Y39613D02*
D03*
Y32044D02*
D03*
Y35981D02*
D03*
X-40490Y57722D02*
D03*
Y61659D02*
D03*
X-37090Y57722D02*
D03*
Y61659D02*
D03*
X-79354Y37918D02*
D03*
Y33981D02*
D03*
X-40465Y40543D02*
D03*
Y36606D02*
D03*
X7421Y-57898D02*
D03*
Y-53961D02*
D03*
X-586Y-4019D02*
D03*
Y-7956D02*
D03*
X-4686Y-4019D02*
D03*
Y-7956D02*
D03*
X-28220Y23144D02*
D03*
Y27081D02*
D03*
X-7313Y13081D02*
D03*
Y9144D02*
D03*
X-7213Y-24156D02*
D03*
Y-20219D02*
D03*
D35*
X-35913Y66244D02*
D03*
Y70181D02*
D03*
X-32113Y20244D02*
D03*
Y24181D02*
D03*
X-11627Y12168D02*
D03*
Y16105D02*
D03*
D36*
X-68207Y20450D02*
D03*
Y18481D02*
D03*
Y16513D02*
D03*
Y14544D02*
D03*
Y12576D02*
D03*
X-55018D02*
D03*
Y14544D02*
D03*
Y16513D02*
D03*
Y18481D02*
D03*
Y20450D02*
D03*
D37*
X-61613Y16513D02*
D03*
D38*
X-25913Y52831D02*
D03*
Y68973D02*
D03*
D39*
X-29213Y32760D02*
D03*
Y42602D02*
D03*
D40*
X12598Y-59252D02*
D03*
Y-75394D02*
D03*
X18898D02*
D03*
Y-59252D02*
D03*
D41*
X-57713Y26497D02*
D03*
X-64799D02*
D03*
X-51899Y26397D02*
D03*
X-44813D02*
D03*
X-74669Y6313D02*
D03*
X-81756D02*
D03*
X-82497Y-17216D02*
D03*
X-89583D02*
D03*
X-97356Y-43287D02*
D03*
X-90269D02*
D03*
D42*
X-84404Y-10179D02*
D03*
Y-3092D02*
D03*
X-63413Y-531D02*
D03*
Y6556D02*
D03*
D43*
X-90391Y-25687D02*
D03*
X-100234D02*
D03*
D44*
X-78913Y22237D02*
D03*
Y12788D02*
D03*
D45*
X14547Y60210D02*
D03*
X9547D02*
D03*
X4547D02*
D03*
X-453D02*
D03*
Y38950D02*
D03*
X4547D02*
D03*
X9547D02*
D03*
X14547D02*
D03*
D46*
X-51639Y35539D02*
D03*
X-53607D02*
D03*
X-55576D02*
D03*
X-57544D02*
D03*
X-59513D02*
D03*
X-61481D02*
D03*
X-63450D02*
D03*
X-65418D02*
D03*
X-67387D02*
D03*
X-69355D02*
D03*
X-71324D02*
D03*
X-73292D02*
D03*
Y68610D02*
D03*
X-71324D02*
D03*
X-69355D02*
D03*
X-67387D02*
D03*
X-65418D02*
D03*
X-63450D02*
D03*
X-61481D02*
D03*
X-59513D02*
D03*
X-57544D02*
D03*
X-55576D02*
D03*
X-53607D02*
D03*
X-51639D02*
D03*
D47*
X-79001Y41248D02*
D03*
Y43217D02*
D03*
Y45185D02*
D03*
Y47154D02*
D03*
Y49122D02*
D03*
Y51091D02*
D03*
Y53059D02*
D03*
Y55028D02*
D03*
Y56996D02*
D03*
Y58965D02*
D03*
Y60933D02*
D03*
Y62902D02*
D03*
X-45930D02*
D03*
Y60933D02*
D03*
Y58965D02*
D03*
Y56996D02*
D03*
Y55028D02*
D03*
Y53059D02*
D03*
Y51091D02*
D03*
Y49122D02*
D03*
Y47154D02*
D03*
Y45185D02*
D03*
Y43217D02*
D03*
Y41248D02*
D03*
D48*
X-24366Y14913D02*
D03*
X-31059D02*
D03*
D49*
X-15744Y12213D02*
D03*
X-19681D02*
D03*
D50*
X-24364Y-9874D02*
D03*
X-22395D02*
D03*
X-20427D02*
D03*
X-18458D02*
D03*
X-16490D02*
D03*
Y6268D02*
D03*
X-18458D02*
D03*
X-20427D02*
D03*
X-22395D02*
D03*
X-24364D02*
D03*
D51*
X-12356Y-5740D02*
D03*
Y-3772D02*
D03*
Y-1803D02*
D03*
Y165D02*
D03*
Y2134D02*
D03*
X-28498D02*
D03*
Y165D02*
D03*
Y-1803D02*
D03*
Y-3772D02*
D03*
Y-5740D02*
D03*
D52*
X-20427Y-1803D02*
D03*
D54*
X4419Y-13560D02*
D03*
Y-22615D02*
D03*
X-2865Y-13560D02*
D03*
Y-22615D02*
D03*
D55*
X7750Y6550D02*
D03*
X10534Y9334D02*
D03*
D56*
X72736Y13780D02*
D03*
X66437D02*
D03*
X83760D02*
D03*
X77461D02*
D03*
D57*
X104331Y-15748D02*
D03*
X90945D02*
D03*
D58*
X97638Y13780D02*
D03*
D59*
X-100840Y-10877D02*
D03*
X-98872D02*
D03*
X-96903D02*
D03*
X-94935D02*
D03*
X-92966D02*
D03*
X-90998D02*
D03*
Y-2216D02*
D03*
X-92966D02*
D03*
X-94935D02*
D03*
X-96903D02*
D03*
X-98872D02*
D03*
X-100840D02*
D03*
D60*
X-95919Y-6547D02*
D03*
D64*
X-100984Y-49213D02*
D03*
X15157D02*
D03*
X15157Y75984D02*
D03*
D65*
X-105512Y-44685D02*
D03*
X19685Y71457D02*
D03*
Y-44685D02*
D03*
D109*
X-7941Y6050D02*
D03*
X-4713D02*
D03*
X-4713Y2113D02*
D03*
X-7941Y2113D02*
D03*
Y144D02*
D03*
X-4713D02*
D03*
D110*
X-95919Y-6547D02*
D03*
D111*
X-90407Y-5365D02*
D03*
X-90407Y-7728D02*
D03*
X-101431Y-5365D02*
D03*
X-101431Y-7728D02*
D03*
D112*
X34252Y-71653D02*
D03*
Y70079D02*
D03*
X28346Y1181D02*
D03*
M02*
